<?xml version="1.0" encoding="UTF-8" standalone="no"?>
<!-- Generator: Adobe Illustrator 27.2.0, SVG Export Plug-In . SVG Version: 6.00 Build 0)  -->

<svg xmlns:dc="http://purl.org/dc/elements/1.1/" xmlns:cc="http://creativecommons.org/ns#" xmlns:rdf="http://www.w3.org/1999/02/22-rdf-syntax-ns#" xmlns:svg="http://www.w3.org/2000/svg" xmlns="http://www.w3.org/2000/svg" xmlns:sodipodi="http://sodipodi.sourceforge.net/DTD/sodipodi-0.dtd" xmlns:inkscape="http://www.inkscape.org/namespaces/inkscape" version="1.1" id="Ebene_1" x="0px" y="0px" viewBox="0 0 64 64" style="enable-background:new 0 0 64 64;" xml:space="preserve" sodipodi:docname="contentdroplets-pdf-break-icon.svg" inkscape:version="0.92.5 (2060ec1f9f, 2020-04-08)"><metadata id="metadata17"><rdf:RDF><cc:Work rdf:about=""><dc:format>image/svg+xml</dc:format><dc:type rdf:resource="http://purl.org/dc/dcmitype/StillImage" /></cc:Work></rdf:RDF></metadata><defs id="defs15" /><sodipodi:namedview pagecolor="#ffffff" bordercolor="#666666" borderopacity="1" objecttolerance="10" gridtolerance="10" guidetolerance="10" inkscape:pageopacity="0" inkscape:pageshadow="2" inkscape:window-width="1920" inkscape:window-height="1009" id="namedview13" showgrid="false" inkscape:zoom="10" inkscape:cx="17.5" inkscape:cy="37.925112" inkscape:window-x="0" inkscape:window-y="0" inkscape:window-maximized="1" inkscape:current-layer="g10" showguides="true" inkscape:guide-bbox="true"><sodipodi:guide position="47.5,32" orientation="0,1" id="guide840" inkscape:locked="true" inkscape:label="" inkscape:color="rgb(0,0,255)" /></sodipodi:namedview>
<style type="text/css" id="style2">
	.st0{fill:#FFFFFF;}
	.st1{fill:none;}
	.st2{fill:#3E5389;}
</style>

<path sodipodi:nodetypes="sssssssss" inkscape:connector-curvature="0" id="rect858-7-5" d="m 19.589238,12.65493 19.253205,-0.06804 c 1.273769,-0.0037 11.319291,9.099092 11.300672,11.607008 l -0.170183,22.92514 c -0.01856,2.507914 -2.565593,4.527077 -5.75245,4.527077 H 22.414405 c -3.186857,0 -5.75245,-2.01909 -5.75245,-4.527077 v -29.93699 c 0,-2.507988 -0.259554,-4.515797 2.927283,-4.527077 z" style="opacity:1;fill:white;fill-opacity:1;stroke:none;stroke-width:2.82000041;stroke-linecap:round;stroke-linejoin:round;stroke-miterlimit:4;stroke-dasharray:none;stroke-dashoffset:74.26771545;stroke-opacity:1;paint-order:fill markers stroke" /><rect x="35.3" y="-2.3" class="st1" width="42.8" height="51.5" id="rect6" />
<g id="g10">
	<path class="st2" d="m 49.9,20.1 c 0.4,0.4 0.8,1 1.1,1.8 0.3,0.7 0.5,1.4 0.5,2 v 26.9 c 0,0.6 -0.2,1.2 -0.7,1.6 -0.4,0.4 -1,0.7 -1.6,0.7 H 17.8 c -0.6,0 -1.2,-0.2 -1.6,-0.7 -0.4,-0.4 -0.7,-1 -0.7,-1.6 V 13.5 c 0,-0.6 0.2,-1.2 0.7,-1.6 0.4,-0.4 1,-0.7 1.6,-0.7 h 20.9 c 0.6,0 1.3,0.2 2,0.5 0.8,0.3 1.4,0.7 1.8,1.1 z m -1.4,6.1 h -9.7 c -0.6,0 -1.2,-0.2 -1.6,-0.7 -0.4,-0.4 -0.7,-1 -0.7,-1.6 v -9.7 h -18 V 50.1 H 48.4 V 26.2 Z m -10,11.3 c 0.9,-0.1 1.8,-0.2 2.7,-0.2 2.3,0 3.7,0.4 4.1,1.1 0.2,0.4 0.3,0.8 0,1.2 v 0 0 0 c -0.1,0.6 -0.6,0.9 -1.6,0.9 -0.8,0 -1.7,-0.1 -2.7,-0.4 -1,-0.3 -2,-0.7 -3,-1.2 -3.5,0.4 -6.5,1 -9.2,1.9 -2.4,4.1 -4.3,6.1 -5.7,6.1 -0.2,0 -0.4,-0.1 -0.7,-0.2 l -0.5,-0.3 c 0,0 -0.1,-0.1 -0.2,-0.1 -0.1,-0.2 -0.2,-0.4 -0.1,-0.8 0.1,-0.6 0.6,-1.3 1.3,-2.2 0.7,-0.8 1.8,-1.5 3.1,-2.2 0.2,-0.1 0.4,-0.1 0.5,0.2 0.1,0 0.1,0.1 0.1,0.1 0.8,-1.3 1.6,-2.9 2.5,-4.6 1.1,-2.1 1.9,-4.1 2.4,-6.1 -0.4,-1.3 -0.6,-2.5 -0.7,-3.8 -0.1,-1.2 -0.1,-2.2 0.1,-2.9 0.2,-0.6 0.5,-0.9 1,-0.9 h 0.5 c 0.4,0 0.6,0.1 0.8,0.3 0.3,0.3 0.3,0.9 0.2,1.6 0,0.1 -0.1,0.2 -0.1,0.2 0,0 0,0.1 0,0.2 v 0.8 c 0,1.9 -0.1,3.4 -0.3,4.5 0.9,2.6 2,4.4 3.4,5.6 0.6,0.3 1.3,0.8 2.1,1.2 z M 23,45.9 c 0.8,-0.4 1.9,-1.6 3.2,-3.7 -0.8,0.6 -1.5,1.3 -2,2 -0.5,0.7 -1,1.2 -1.2,1.7 z m 13.1,-8 c -0.1,0 -0.2,-0.1 -0.3,-0.2 -0.2,-0.1 -0.3,-0.2 -0.4,-0.3 -1.2,-1.1 -2.2,-2.4 -3,-4.1 -0.4,1.3 -1,2.9 -1.9,4.6 -0.5,0.9 -0.8,1.5 -1.1,1.9 2.1,-0.8 4.3,-1.5 6.7,-1.9 z M 32.3,27.4 c 0,-0.1 0.1,-0.4 0.2,-1 0,-0.1 0.1,-0.4 0.2,-1 0,-0.1 0.1,-0.1 0.1,-0.2 v 0 0 c 0,-0.4 -0.1,-0.6 -0.3,-0.9 0,0 0,0 0,0 v 0 C 32.1,25 32.1,26 32.3,27.4 Z m 7.2,-13 v 8.8 h 8.8 c -0.2,-0.5 -0.3,-0.8 -0.5,-1 l -7.3,-7.3 c -0.2,-0.2 -0.5,-0.3 -1,-0.5 z m 1.7,24.5 c 1.2,0.4 2.2,0.7 2.9,0.7 0.2,0 0.4,0 0.4,0 0,0 0,-0.1 -0.1,-0.1 -0.2,-0.5 -1.3,-0.6 -3.2,-0.6 z" id="path8" style="fill:#3e5389;fill-opacity:1;stroke:none;stroke-opacity:1" inkscape:connector-curvature="0" />
<rect style="opacity:1;fill:white;fill-opacity:1;stroke:none;stroke-width:3.00000024;stroke-linecap:square;stroke-linejoin:round;stroke-miterlimit:4;stroke-dasharray:none;stroke-dashoffset:74.26771545;stroke-opacity:1;paint-order:fill markers stroke" id="rect819" width="36.100002" height="6.1000004" x="15.4" y="28.900003" /><path style="fill:none;stroke:#bd1d1d;stroke-width:1;stroke-linecap:round;stroke-linejoin:miter;stroke-miterlimit:3.70000005;stroke-dasharray:0.99999999, 2;stroke-dashoffset:0;stroke-opacity:1" d="M 17.7,32 H 50.5" id="path821" inkscape:connector-curvature="0" /><path sodipodi:type="star" style="opacity:1;fill:#bd1d1d;fill-opacity:1;stroke:#bd1d1d;stroke-width:2.52310395;stroke-linecap:round;stroke-linejoin:round;stroke-miterlimit:3.70000005;stroke-dasharray:none;stroke-dashoffset:0;stroke-opacity:1;paint-order:fill markers stroke" id="path823" sodipodi:sides="3" sodipodi:cx="-6.4856434" sodipodi:cy="-21.957905" sodipodi:r1="9.9538937" sodipodi:r2="4.9769468" sodipodi:arg1="0.39169994" sodipodi:arg2="1.4388975" inkscape:flatsided="false" inkscape:rounded="0" inkscape:randomized="0" d="m 2.7143566,-18.157905 -8.5454483,1.133717 -8.5454483,1.133717 3.290897,-7.967434 3.2908962,-7.967433 5.2545517,6.833716 z" inkscape:transform-center-x="-1.8894859" inkscape:transform-center-y="-0.58092272" transform="matrix(-0.3123139,-0.23386743,0.24131702,-0.32226232,14.644648,23.516895)" /><path sodipodi:type="star" style="opacity:1;fill:#bd1d1d;fill-opacity:1;stroke:#bd1d1d;stroke-width:2.52310395;stroke-linecap:round;stroke-linejoin:round;stroke-miterlimit:3.70000005;stroke-dasharray:none;stroke-dashoffset:0;stroke-opacity:1;paint-order:fill markers stroke" id="path823-3" sodipodi:sides="3" sodipodi:cx="-6.4856434" sodipodi:cy="-21.957905" sodipodi:r1="9.9538937" sodipodi:r2="4.9769468" sodipodi:arg1="0.39169994" sodipodi:arg2="1.4388975" inkscape:flatsided="false" inkscape:rounded="0" inkscape:randomized="0" d="m 2.7143566,-18.157905 -8.5454483,1.133717 -8.5454483,1.133717 3.290897,-7.967434 3.2908962,-7.967433 5.2545517,6.833716 z" inkscape:transform-center-x="1.8894856" inkscape:transform-center-y="0.58092254" transform="matrix(0.3123139,0.23386743,-0.24131702,0.32226232,52.425936,40.483105)" /></g>
</svg>