<?xml version="1.0" encoding="UTF-8" standalone="no"?>
<!-- Generator: Adobe Illustrator 27.2.0, SVG Export Plug-In . SVG Version: 6.00 Build 0)  -->

<svg xmlns:dc="http://purl.org/dc/elements/1.1/" xmlns:cc="http://creativecommons.org/ns#" xmlns:rdf="http://www.w3.org/1999/02/22-rdf-syntax-ns#" xmlns:svg="http://www.w3.org/2000/svg" xmlns="http://www.w3.org/2000/svg" xmlns:sodipodi="http://sodipodi.sourceforge.net/DTD/sodipodi-0.dtd" xmlns:inkscape="http://www.inkscape.org/namespaces/inkscape" version="1.1" id="Ebene_1" x="0px" y="0px" viewBox="0 0 64 64" style="enable-background:new 0 0 64 64;" xml:space="preserve" sodipodi:docname="contentdroplets-no-pdf-icon.svg" inkscape:version="0.92.5 (2060ec1f9f, 2020-04-08)"><metadata id="metadata17"><rdf:RDF><cc:Work rdf:about=""><dc:format>image/svg+xml</dc:format><dc:type rdf:resource="http://purl.org/dc/dcmitype/StillImage" /></cc:Work></rdf:RDF></metadata><defs id="defs15"><marker inkscape:stockid="Arrow1Lstart" orient="auto" refY="0.0" refX="0.0" id="Arrow1Lstart" style="overflow:visible" inkscape:isstock="true"><path id="path842" d="M 0.0,0.0 L 5.0,-5.0 L -12.5,0.0 L 5.0,5.0 L 0.0,0.0 z " style="fill-rule:evenodd;stroke:#bd1d1d;stroke-width:1pt;stroke-opacity:0.94117647;fill:#3e5389;fill-opacity:1" transform="scale(0.8) translate(12.5,0)" /></marker></defs><sodipodi:namedview pagecolor="#ffffff" bordercolor="#666666" borderopacity="1" objecttolerance="10" gridtolerance="10" guidetolerance="10" inkscape:pageopacity="0" inkscape:pageshadow="2" inkscape:window-width="1920" inkscape:window-height="1009" id="namedview13" showgrid="false" inkscape:zoom="10" inkscape:cx="-2.066667" inkscape:cy="29.925112" inkscape:window-x="1920" inkscape:window-y="0" inkscape:window-maximized="1" inkscape:current-layer="Ebene_1" showguides="true" inkscape:guide-bbox="true"><sodipodi:guide position="32,13.9" orientation="1,0" id="guide821" inkscape:locked="false" inkscape:label="" inkscape:color="rgb(0,0,255)" /><sodipodi:guide position="68.7,32" orientation="0,1" id="guide823" inkscape:locked="false" inkscape:label="" inkscape:color="rgb(0,0,255)" /></sodipodi:namedview>
<style type="text/css" id="style2">
	.st0{fill:#FFFFFF;}
	.st1{fill:none;}
	.st2{fill:#3E5389;}
</style>

<circle style="opacity:1;fill:#fefeff;fill-opacity:1;stroke:#bd1d1d;stroke-width:4;stroke-linecap:round;stroke-linejoin:round;stroke-miterlimit:4;stroke-dasharray:none;stroke-dashoffset:74.26771545;stroke-opacity:0.94117647;paint-order:fill markers stroke" id="path819-3" cx="32" cy="32" r="23.5" /><rect x="35.3" y="-2.3" class="st1" width="42.8" height="51.5" id="rect6" />
<g id="g10" style="fill:#3e5389;fill-opacity:1;stroke-width:1.29100466" transform="matrix(0.77459053,0,0,0.77459053,6.5277113,6.026463)">
	<path class="st2" d="m 49.9,20.9 c 0.4,0.4 0.8,1 1.1,1.8 0.3,0.7 0.5,1.4 0.5,2 v 26.9 c 0,0.6 -0.2,1.2 -0.7,1.6 -0.4,0.4 -1,0.7 -1.6,0.7 H 17.8 c -0.6,0 -1.2,-0.2 -1.6,-0.7 -0.4,-0.4 -0.7,-1 -0.7,-1.6 V 14.3 c 0,-0.6 0.2,-1.2 0.7,-1.6 0.4,-0.4 1,-0.7 1.6,-0.7 h 20.9 c 0.6,0 1.3,0.2 2,0.5 0.8,0.3 1.4,0.7 1.8,1.1 z M 48.5,27 h -9.7 c -0.6,0 -1.2,-0.2 -1.6,-0.7 -0.4,-0.4 -0.7,-1 -0.7,-1.6 V 15 h -18 V 50.9 H 48.4 V 27 Z m -10,11.3 c 0.9,-0.1 1.8,-0.2 2.7,-0.2 2.3,0 3.7,0.4 4.1,1.1 0.2,0.4 0.3,0.8 0,1.2 v 0 0 0 c -0.1,0.6 -0.6,0.9 -1.6,0.9 -0.8,0 -1.7,-0.1 -2.7,-0.4 -1,-0.3 -2,-0.7 -3,-1.2 -3.5,0.4 -6.5,1 -9.2,1.9 -2.4,4.1 -4.3,6.1 -5.7,6.1 -0.2,0 -0.4,-0.1 -0.7,-0.2 l -0.5,-0.3 c 0,0 -0.1,-0.1 -0.2,-0.1 -0.1,-0.2 -0.2,-0.4 -0.1,-0.8 0.1,-0.6 0.6,-1.3 1.3,-2.2 0.7,-0.8 1.8,-1.5 3.1,-2.2 0.2,-0.1 0.4,-0.1 0.5,0.2 0.1,0 0.1,0.1 0.1,0.1 0.8,-1.3 1.6,-2.9 2.5,-4.6 1.1,-2.1 1.9,-4.1 2.4,-6.1 -0.4,-1.3 -0.6,-2.5 -0.7,-3.8 -0.1,-1.2 -0.1,-2.2 0.1,-2.9 0.2,-0.6 0.5,-0.9 1,-0.9 h 0.5 c 0.4,0 0.6,0.1 0.8,0.3 0.3,0.3 0.3,0.9 0.2,1.6 0,0.1 -0.1,0.2 -0.1,0.2 0,0 0,0.1 0,0.2 V 27 c 0,1.9 -0.1,3.4 -0.3,4.5 0.9,2.6 2,4.4 3.4,5.6 0.6,0.3 1.3,0.8 2.1,1.2 z M 23,46.7 c 0.8,-0.4 1.9,-1.6 3.2,-3.7 -0.8,0.6 -1.5,1.3 -2,2 -0.5,0.7 -1,1.2 -1.2,1.7 z m 13.1,-8 c -0.1,0 -0.2,-0.1 -0.3,-0.2 -0.2,-0.1 -0.3,-0.2 -0.4,-0.3 -1.2,-1.1 -2.2,-2.4 -3,-4.1 -0.4,1.3 -1,2.9 -1.9,4.6 -0.5,0.9 -0.8,1.5 -1.1,1.9 2.1,-0.8 4.3,-1.5 6.7,-1.9 z M 32.3,28.2 c 0,-0.1 0.1,-0.4 0.2,-1 0,-0.1 0.1,-0.4 0.2,-1 0,-0.1 0.1,-0.1 0.1,-0.2 v 0 0 c 0,-0.4 -0.1,-0.6 -0.3,-0.9 0,0 0,0 0,0 v 0 c -0.4,0.7 -0.4,1.7 -0.2,3.1 z m 7.2,-13 V 24 h 8.8 C 48.1,23.5 48,23.2 47.8,23 l -7.3,-7.3 c -0.2,-0.2 -0.5,-0.3 -1,-0.5 z m 1.7,24.5 c 1.2,0.4 2.2,0.7 2.9,0.7 0.2,0 0.4,0 0.4,0 0,0 0,-0.1 -0.1,-0.1 -0.2,-0.5 -1.3,-0.6 -3.2,-0.6 z" id="path8" style="fill:#3e5389;fill-opacity:1;stroke:none;stroke-width:1.42656016;stroke-opacity:1" inkscape:connector-curvature="0" />
</g>
<path style="fill:none;stroke:#bd1d1d;stroke-width:3;stroke-linecap:round;stroke-linejoin:miter;stroke-miterlimit:4;stroke-dasharray:none;stroke-opacity:1" d="M 48.986199,46.05181 15.24819,17.286199" id="path825" inkscape:connector-curvature="0" /></svg>